<svg xmlns="http://www.w3.org/2000/svg" xmlns:xlink="http://www.w3.org/1999/xlink" viewBox="0 0 111.8 98.09"><defs><style>.cls-1{fill:url(#linear-gradient);}.cls-2{fill:url(#linear-gradient-2);}.cls-3{fill:url(#linear-gradient-3);}.cls-4{fill:url(#linear-gradient-4);}.cls-5{fill:url(#linear-gradient-5);}</style><linearGradient id="linear-gradient" x1="78.52" y1="39.14" x2="120.99" y2="39.14" gradientTransform="matrix(0.82, -0.57, 0.57, 0.82, -77.38, 51.66)" gradientUnits="userSpaceOnUse"><stop offset="0.32" stop-color="#fba729"/><stop offset="1" stop-color="#ffe10c"/></linearGradient><linearGradient id="linear-gradient-2" x1="125.69" y1="35.66" x2="156.68" y2="35.66" gradientTransform="matrix(0.82, -0.57, 0.57, 0.82, -64.75, 66.7)" xlink:href="#linear-gradient"/><linearGradient id="linear-gradient-3" x1="117.65" y1="154.87" x2="143.43" y2="154.87" gradientTransform="matrix(0.82, -0.57, 0.57, 0.82, -153.59, 32.68)" xlink:href="#linear-gradient"/><linearGradient id="linear-gradient-4" x1="207.01" y1="-7.32" x2="235.42" y2="-7.32" gradientTransform="matrix(0.82, -0.57, 0.57, 0.82, -80.8, 191.24)" xlink:href="#linear-gradient"/><linearGradient id="linear-gradient-5" x1="186.75" y1="85.06" x2="226.43" y2="85.06" gradientTransform="matrix(0.82, -0.57, 0.57, 0.82, -145.22, 119.76)" xlink:href="#linear-gradient"/></defs><g id="Layer_2" data-name="Layer 2"><g id="_35" data-name="35"><path class="cls-1" d="M57.61,35.32a17.28,17.28,0,0,1-.77-1.69C41.16,1.43,6.13,2.5.61,17c-4.31,11.09,14.29,37.43,57,18.33Z"/><path class="cls-2" d="M64.68,32.4C88.79,21.61,85.41,3,79.11.51c-8.3-3.24-23.66,9.25-14.9,31a2.64,2.64,0,0,1,.47.93Z"/><path class="cls-3" d="M41.63,61.42a150.27,150.27,0,0,0-10.15,19.1c-.14.31-.14.47-.3.77-.76,2-1.54,3.55-2,4.94a3.07,3.07,0,0,0,1.84,4c1.22.47,2.91,1.08,4.92,1.85.3.15.46.15.77.3a139.58,139.58,0,0,0,20.75,5.24,52.24,52.24,0,0,1-15.84-36.2Z"/><path class="cls-4" d="M109.07,53A31.58,31.58,0,0,0,90.94,36a6.53,6.53,0,0,0-2.46-.46,8.58,8.58,0,0,0-8.29,7.55A42.63,42.63,0,0,0,84,64.2,45,45,0,0,0,96.78,81a8.18,8.18,0,0,0,4.92,1.54,8,8,0,0,0,7.53-4.62,30.74,30.74,0,0,0-.16-25Z"/><path class="cls-5" d="M75,68.51a52.32,52.32,0,0,1-4.6-26.05,16.47,16.47,0,0,1,2-6.77c-.15,0-.46.15-.62.15s-.76.15-1.07.3a31.29,31.29,0,0,0-6.6,2.78c-1.07.62-2,1.24-3.07,1.86-5.22,3.54-9.53,9.7-10.14,16.17a42.86,42.86,0,0,0,3.53,20.8A42.22,42.22,0,0,0,66.82,93.93c3.23,2.62,8.91,4.16,13.68,4.16a30.06,30.06,0,0,0,15.21-4.78.15.15,0,0,0,.15-.15c.3-.15.62-.47.92-.62s.3-.3.46-.3a17.73,17.73,0,0,1-6.45-3.09A52.06,52.06,0,0,1,75,68.51Z"/></g></g></svg>